<svg width="68" height="58" viewBox="0 0 68 58" fill="none" xmlns="http://www.w3.org/2000/svg">
<path d="M14.4844 30.27V10C14.4844 9.45 14.9344 9 15.4844 9H53.7444C54.0144 9 54.2444 9.22 54.2444 9.5V30.27H14.4844Z" fill="white"/>
<path d="M53.2344 10V29.26H15.4844V10H53.2444M53.7444 8H15.4844C14.3844 8 13.4844 8.9 13.4844 10V31.26H55.2444V9.5C55.2444 8.67 54.5744 8 53.7444 8Z" fill="#111111"/>
<path d="M7.00082 42.9502C6.46082 42.9502 6.20082 42.5802 6.12082 42.4202C6.04082 42.2602 5.87082 41.8402 6.17082 41.3902L13.9008 29.9102H54.5908L62.3208 41.3902C62.6208 41.8402 62.4608 42.2602 62.3708 42.4202C62.2808 42.5802 62.0308 42.9502 61.4908 42.9502H7.00082Z" fill="white"/>
<path d="M54.0621 30.9102L61.4921 41.9502H7.00205L14.4321 30.9102H54.0621ZM55.1221 28.9102H13.3721L5.34205 40.8302C4.45205 42.1602 5.40205 43.9502 7.00205 43.9502H61.4921C63.0921 43.9502 64.0421 42.1602 63.1521 40.8302L55.1321 28.9102H55.1221Z" fill="#111111"/>
<path d="M30.83 13.8398H19.5C18.9477 13.8398 18.5 14.2876 18.5 14.8398V16.7698C18.5 17.3221 18.9477 17.7698 19.5 17.7698H30.83C31.3823 17.7698 31.83 17.3221 31.83 16.7698V14.8398C31.83 14.2876 31.3823 13.8398 30.83 13.8398Z" fill="white"/>
<path d="M30.83 14.8398V16.7698H19.5V14.8398H30.83ZM30.83 12.8398H19.5C18.4 12.8398 17.5 13.7398 17.5 14.8398V16.7698C17.5 17.8698 18.4 18.7698 19.5 18.7698H30.83C31.93 18.7698 32.83 17.8698 32.83 16.7698V14.8398C32.83 13.7398 31.93 12.8398 30.83 12.8398Z" fill="#111111"/>
<path d="M6.625 46.3594H61.875" stroke="#111111" stroke-width="2" stroke-linecap="round" stroke-linejoin="round"/>
<path d="M6.625 49.2793H61.875" stroke="#111111" stroke-width="2" stroke-linecap="round" stroke-linejoin="round"/>
<path d="M54.6294 36.3004L63.3594 30.2304L54.6294 24.1504V27.7804H44.8594V32.6704H54.6294V36.3004Z" fill="#2A559A" stroke="#111111" stroke-width="2" stroke-linecap="round" stroke-linejoin="round"/>
<path d="M40.5659 14.8906L31.8359 20.9706L40.5659 27.0406V23.4106H50.3359V18.5206H40.5659V14.8906Z" fill="#1B939F" stroke="#111111" stroke-width="2" stroke-linecap="round" stroke-linejoin="round"/>
</svg>
