<svg width="68" height="58" viewBox="0 0 68 58" fill="none" xmlns="http://www.w3.org/2000/svg">
<path d="M63 10H5C4.44772 10 4 10.4477 4 11V47C4 47.5523 4.44772 48 5 48H63C63.5523 48 64 47.5523 64 47V11C64 10.4477 63.5523 10 63 10Z" fill="#1B939F"/>
<path d="M63 11V47H5V11H63ZM63 9H5C3.9 9 3 9.9 3 11V47C3 48.1 3.9 49 5 49H63C64.1 49 65 48.1 65 47V11C65 9.9 64.1 9 63 9Z" fill="#111111"/>
<path d="M22.5625 38.2109H10.5625C10.0102 38.2109 9.5625 38.6587 9.5625 39.2109C9.5625 39.7632 10.0102 40.2109 10.5625 40.2109H22.5625C23.1148 40.2109 23.5625 39.7632 23.5625 39.2109C23.5625 38.6587 23.1148 38.2109 22.5625 38.2109Z" fill="#111111"/>
<path d="M28.5625 32.2109H10.5625C10.0102 32.2109 9.5625 32.6587 9.5625 33.2109C9.5625 33.7632 10.0102 34.2109 10.5625 34.2109H28.5625C29.1148 34.2109 29.5625 33.7632 29.5625 33.2109C29.5625 32.6587 29.1148 32.2109 28.5625 32.2109Z" fill="#111111"/>
<path d="M64 17.8809H4V25.8809H64V17.8809Z" fill="white"/>
<path d="M63 18.8809V24.8809H5V18.8809H63ZM65 16.8809H3V26.8809H65V16.8809Z" fill="#111111"/>
<path d="M52.9025 32.1094H43.7825C41.1757 32.1094 39.0625 34.2226 39.0625 36.8294C39.0625 39.4362 41.1757 41.5494 43.7825 41.5494H52.9025C55.5093 41.5494 57.6225 39.4362 57.6225 36.8294C57.6225 34.2226 55.5093 32.1094 52.9025 32.1094Z" fill="#2A559A" stroke="#111111" stroke-width="2" stroke-linecap="round" stroke-linejoin="round"/>
</svg>
