<svg width="41" height="41" viewBox="0 0 41 41" fill="none" xmlns="http://www.w3.org/2000/svg">
<path d="M5.67188 23.5195H17.4819" stroke="#505050" stroke-miterlimit="10" stroke-linecap="round"/>
<path d="M5.67188 26.5898H13.5019" stroke="#505050" stroke-miterlimit="10" stroke-linecap="round"/>
<path d="M40 9H1V32H40V9Z" stroke="#505050" stroke-linecap="round" stroke-linejoin="round"/>
<path d="M40 14.2598H1V18.4098H40V14.2598Z" stroke="#505050" stroke-linecap="round" stroke-linejoin="round"/>
<path d="M27.3902 26.3998C27.3902 27.1198 27.8602 27.3898 28.6602 27.3898C29.4602 27.3898 29.8402 27.0598 29.8402 26.5898C29.8402 26.1998 29.6502 26.0098 29.1102 25.8198C28.7302 25.6798 28.3602 25.5498 27.9802 25.4198C26.8902 25.0498 26.1302 24.6098 26.1302 23.5898C26.1302 22.3998 26.9702 21.5898 28.5402 21.5898C30.1102 21.5898 31.0402 22.2998 31.0602 23.5098C31.0102 23.8798 30.6802 24.1498 30.3202 24.1298C29.9902 24.1098 29.7102 23.8498 29.6702 23.5098C29.6402 23.0098 29.3702 22.7398 28.5602 22.7398C27.9102 22.7398 27.5102 23.0298 27.5102 23.4698C27.5102 23.8198 27.7502 24.0198 28.0802 24.1498C28.5002 24.3098 28.9002 24.4498 29.3702 24.5998C30.4802 24.9698 31.2302 25.4098 31.2302 26.4998C31.2302 27.7898 30.3402 28.5298 28.6102 28.5298C27.0802 28.5298 26.0002 27.7998 26.0002 26.3898C25.9902 25.9998 26.3102 25.6698 26.6902 25.6698C27.0802 25.6698 27.4002 25.9998 27.3802 26.3898L27.3902 26.3998Z" fill="#505050"/>
<path d="M31.3277 26.3998C31.3277 27.1198 31.7977 27.3898 32.5977 27.3898C33.3977 27.3898 33.7777 27.0598 33.7777 26.5898C33.7777 26.1998 33.5877 26.0098 33.0477 25.8198C32.6677 25.6798 32.2977 25.5498 31.9177 25.4198C30.8277 25.0498 30.0677 24.6098 30.0677 23.5898C30.0677 22.3998 30.9077 21.5898 32.4777 21.5898C34.0477 21.5898 34.9777 22.2998 34.9977 23.5098C34.9477 23.8798 34.6177 24.1498 34.2577 24.1298C33.9277 24.1098 33.6477 23.8498 33.6077 23.5098C33.5777 23.0098 33.3077 22.7398 32.4977 22.7398C31.8477 22.7398 31.4477 23.0298 31.4477 23.4698C31.4477 23.8198 31.6877 24.0198 32.0177 24.1498C32.4377 24.3098 32.8377 24.4498 33.3077 24.5998C34.4177 24.9698 35.1677 25.4098 35.1677 26.4998C35.1677 27.7898 34.2777 28.5298 32.5477 28.5298C31.0177 28.5298 29.9377 27.7998 29.9377 26.3898C29.9277 25.9998 30.2477 25.6698 30.6277 25.6698C31.0177 25.6698 31.3377 25.9998 31.3177 26.3898L31.3277 26.3998Z" fill="#505050"/>
</svg>
