<svg width="41" height="41" viewBox="0 0 41 41" fill="none" xmlns="http://www.w3.org/2000/svg">
<path d="M20.0694 17.92C23.9133 17.92 27.0294 14.8039 27.0294 10.96C27.0294 7.1161 23.9133 4 20.0694 4C16.2255 4 13.1094 7.1161 13.1094 10.96C13.1094 14.8039 16.2255 17.92 20.0694 17.92Z" stroke="#505050" stroke-linecap="round" stroke-linejoin="round"/>
<path d="M17.39 20.1094H22.75C27.93 20.1094 32.13 24.3194 32.13 29.4894V36.6094H8V29.4894C8 24.3094 12.21 20.1094 17.38 20.1094H17.39Z" stroke="#505050" stroke-linecap="round" stroke-linejoin="round"/>
<path d="M14.6094 20.6902L15.6394 23.7502L20.0694 20.4902" stroke="#505050" stroke-linecap="round" stroke-linejoin="round"/>
<path d="M25.5303 20.6902L24.5103 23.7502L20.0703 20.4902" stroke="#505050" stroke-linecap="round" stroke-linejoin="round"/>
<path d="M17.9531 22.6699L18.7331 24.0799H21.2631L22.0431 22.6699" stroke="#505050" stroke-linecap="round" stroke-linejoin="round"/>
<path d="M22.1366 32.7101L19.9366 34.7101L17.7266 32.7101L18.7266 24.0801H21.1366L22.1366 32.7101Z" stroke="#505050" stroke-linecap="round" stroke-linejoin="round"/>
</svg>
