<svg width="68" height="59" viewBox="0 0 68 59" fill="none" xmlns="http://www.w3.org/2000/svg">
<path d="M57.9934 22.4883V54.3883H9.02344V22.4883" fill="#1B939F"/>
<path d="M57.9934 22.4883V54.3883H9.02344V22.4883" stroke="#111111" stroke-width="2" stroke-linecap="round" stroke-linejoin="round"/>
<path d="M57.98 53.1082L33.49 35.1582L9 53.1082" fill="#1B939F"/>
<path d="M57.98 53.1082L33.49 35.1582L9 53.1082" stroke="#111111" stroke-width="2" stroke-linecap="round" stroke-linejoin="round"/>
<path d="M33.49 4.53906L9 22.4891L33.49 40.9191L57.98 22.4891L33.49 4.53906Z" fill="white" stroke="#111111" stroke-width="2" stroke-linecap="round" stroke-linejoin="round"/>
<path d="M19.0078 29.4295V9.93945H47.5078V29.4295" fill="white"/>
<path d="M19.0078 29.4295V9.93945H47.5078V29.4295" stroke="#111111" stroke-width="2" stroke-linecap="round" stroke-linejoin="round"/>
<path d="M39.2578 20.1992H27.2578C26.7055 20.1992 26.2578 20.6469 26.2578 21.1992C26.2578 21.7515 26.7055 22.1992 27.2578 22.1992H39.2578C39.8101 22.1992 40.2578 21.7515 40.2578 21.1992C40.2578 20.6469 39.8101 20.1992 39.2578 20.1992Z" fill="#111111"/>
<path d="M39.2578 26.1289H27.2578C26.7055 26.1289 26.2578 26.5766 26.2578 27.1289C26.2578 27.6812 26.7055 28.1289 27.2578 28.1289H39.2578C39.8101 28.1289 40.2578 27.6812 40.2578 27.1289C40.2578 26.5766 39.8101 26.1289 39.2578 26.1289Z" fill="#111111"/>
</svg>
