<svg width="68" height="58" viewBox="0 0 68 58" fill="none" xmlns="http://www.w3.org/2000/svg">
<path d="M41.3841 52.4307C40.8241 52.4307 40.3641 51.9707 40.3641 51.4107V49.3007C40.3641 48.7507 39.9141 48.3007 39.3641 48.3007H30.6341C30.0841 48.3007 29.6341 48.7507 29.6341 49.3007V51.4107C29.6341 51.9707 29.1741 52.4307 28.6141 52.4307H23.7941C23.2341 52.4307 22.7741 51.9707 22.7741 51.4107V48.5507C22.7741 48.1107 22.4841 47.7207 22.0541 47.5907C14.6941 45.4107 9.73413 38.5307 9.99413 30.8507C10.2941 21.8707 18.0641 14.5707 27.3041 14.5707L38.3841 14.4907C38.9641 14.4907 39.5641 14.5207 40.2241 14.6007C40.2641 14.6007 40.2941 14.6007 40.3341 14.6007C40.6041 14.6007 40.8541 14.4907 41.0441 14.3007C42.5741 12.7507 45.9241 10.1707 47.4941 9.5007C47.5441 9.4807 47.5841 9.4707 47.6341 9.4707C47.7341 9.4707 47.8341 9.5207 47.8941 9.6007C47.9641 9.6807 47.9841 9.7707 47.9641 9.8807L47.1741 15.7707C47.1241 16.1707 47.3141 16.5707 47.6741 16.7707C50.7941 18.5407 53.3141 21.3107 54.7741 24.5807C54.9341 24.9407 55.2941 25.1707 55.6841 25.1707H57.3541C57.7641 25.1707 58.0941 25.5007 58.0941 25.9107V36.1707C58.0941 36.5807 57.7641 36.9107 57.3541 36.9107H56.0041C55.5941 36.9107 55.2241 37.1607 55.0741 37.5507C53.6741 41.1407 51.0541 44.1707 47.7041 46.0807C47.3941 46.2607 47.2041 46.5907 47.2041 46.9507V51.4107C47.2041 51.9707 46.7441 52.4307 46.1841 52.4307H41.3641H41.3841Z" fill="white"/>
<path d="M46.8103 11.0207L46.1903 15.6407C46.0803 16.4507 46.4803 17.2407 47.1903 17.6507C50.1203 19.3107 52.5003 21.9207 53.8703 25.0007C54.1903 25.7207 54.9103 26.1807 55.7003 26.1807H57.1203V35.9307H56.0303C55.2103 35.9307 54.4703 36.4407 54.1703 37.2007C52.8503 40.5807 50.3903 43.4307 47.2403 45.2307C46.6203 45.5907 46.2303 46.2507 46.2303 46.9707L46.2103 51.4507L41.3703 51.4307V49.3207C41.3703 48.2207 40.4703 47.3207 39.3703 47.3207H30.6403C29.5403 47.3207 28.6403 48.2207 28.6403 49.3207L28.6203 51.4507L23.7803 51.4307V48.5707C23.7803 47.6807 23.2003 46.9007 22.3503 46.6507C15.4303 44.6007 10.7603 38.1207 11.0103 30.9007C11.2903 22.4607 18.6103 15.5907 27.3403 15.5907L38.4003 15.5107C38.9503 15.5107 39.5203 15.5407 40.1403 15.6107C40.2103 15.6107 40.2803 15.6207 40.3603 15.6207C40.8903 15.6207 41.4103 15.4107 41.7803 15.0307C42.9403 13.8607 45.2203 12.0407 46.8303 11.0407M47.6403 8.4707C47.4603 8.4707 47.2803 8.5107 47.1103 8.5807C45.3203 9.3507 41.8403 12.0807 40.3403 13.6007C39.7003 13.5307 39.0503 13.4907 38.3903 13.4907L27.3203 13.5707C17.6203 13.5707 9.33026 21.1207 9.01026 30.8207C8.73026 39.1907 14.2103 46.3107 21.7903 48.5607V51.4207C21.7903 52.5307 22.6903 53.4407 23.8103 53.4407H28.6303C29.7403 53.4407 30.6503 52.5407 30.6503 51.4207V49.3107H39.3803V51.4207C39.3803 52.5307 40.2803 53.4407 41.4003 53.4407H46.2203C47.3303 53.4407 48.2403 52.5407 48.2403 51.4207V46.9607C51.7803 44.9407 54.5503 41.7607 56.0403 37.9207H57.3903C58.3503 37.9207 59.1303 37.1407 59.1303 36.1807V25.9207C59.1303 24.9607 58.3503 24.1807 57.3903 24.1807H55.7103C54.1503 20.6807 51.5003 17.7807 48.1903 15.9107L48.9703 10.0607C49.1203 9.2007 48.4403 8.4807 47.6503 8.4807L47.6403 8.4707Z" fill="#111111"/>
<path d="M46.7578 23.6191V26.1591" stroke="#111111" stroke-width="2" stroke-linecap="round" stroke-linejoin="round"/>
<path d="M23.1913 20.04C21.8413 18.45 21.0312 16.39 21.0312 14.14C21.0312 9.09 25.1212 5 30.1712 5C35.2212 5 39.3112 9.09 39.3112 14.14C39.3112 16.39 38.5013 18.45 37.1513 20.04" fill="#1B939F"/>
<path d="M23.1913 20.04C21.8413 18.45 21.0312 16.39 21.0312 14.14C21.0312 9.09 25.1212 5 30.1712 5C35.2212 5 39.3112 9.09 39.3112 14.14C39.3112 16.39 38.5013 18.45 37.1513 20.04" stroke="#111111" stroke-width="2" stroke-linecap="round" stroke-linejoin="round"/>
<path d="M25.5156 11.7598L27.3656 16.1098C27.5356 16.4998 28.1856 16.5098 28.3656 16.1198L29.5956 12.4398C29.7856 11.8698 30.7256 11.8798 30.8956 12.4598L31.9656 16.1198C32.1456 16.5098 32.8056 16.4998 32.9656 16.1098L34.8156 11.7598" stroke="black" stroke-width="2" stroke-linecap="round" stroke-linejoin="round"/>
<path d="M24.9375 14.0801H35.3975" stroke="black" stroke-width="2" stroke-linecap="round" stroke-linejoin="round"/>
<path d="M21.3984 20.2305H38.9484" stroke="black" stroke-width="2" stroke-linecap="round" stroke-linejoin="round"/>
</svg>
