<svg width="49" height="49" viewBox="0 0 49 49" fill="none" xmlns="http://www.w3.org/2000/svg">
<path d="M27.21 6.01H14.8C12.15 6.01 10 8.77 10 12.18V36.86C10 40.27 12.15 43.03 14.8 43.03H34C36.65 43.03 38.8 40.27 38.8 36.86V20.9C38.8 19.26 38.29 17.69 37.39 16.54L30.6 7.81C29.7 6.65 28.48 6 27.21 6V6.01Z" stroke="white" stroke-width="2" stroke-linecap="round" stroke-linejoin="round"/>
<path d="M25.8516 6.16016V15.0602C25.8516 16.2702 25.8516 16.8702 26.0816 17.3302C26.2816 17.7402 26.6016 18.0602 27.0016 18.2702C27.4516 18.5002 28.0316 18.5002 29.2116 18.5002H37.8616" stroke="white" stroke-width="2" stroke-linecap="round" stroke-linejoin="round"/>
<path d="M24.4019 34.8008H16.1719" stroke="white" stroke-width="2" stroke-linecap="round" stroke-linejoin="round"/>
<path d="M32.6319 28.6309H16.1719" stroke="white" stroke-width="2" stroke-linecap="round" stroke-linejoin="round"/>
</svg>
