<svg width="68" height="58" viewBox="0 0 68 58" fill="none" xmlns="http://www.w3.org/2000/svg">
<path d="M63 10H5C4.44772 10 4 10.4477 4 11V47C4 47.5523 4.44772 48 5 48H63C63.5523 48 64 47.5523 64 47V11C64 10.4477 63.5523 10 63 10Z" fill="white"/>
<path d="M63 11V47H5V11H63ZM63 9H5C3.9 9 3 9.9 3 11V47C3 48.1 3.9 49 5 49H63C64.1 49 65 48.1 65 47V11C65 9.9 64.1 9 63 9Z" fill="#111111"/>
<path d="M33.6797 22H11.6797C11.1274 22 10.6797 22.4477 10.6797 23C10.6797 23.5523 11.1274 24 11.6797 24H33.6797C34.232 24 34.6797 23.5523 34.6797 23C34.6797 22.4477 34.232 22 33.6797 22Z" fill="#111111"/>
<path d="M33.6797 28H11.6797C11.1274 28 10.6797 28.4477 10.6797 29C10.6797 29.5523 11.1274 30 11.6797 30H33.6797C34.232 30 34.6797 29.5523 34.6797 29C34.6797 28.4477 34.232 28 33.6797 28Z" fill="#111111"/>
<path d="M27.6797 34H11.6797C11.1274 34 10.6797 34.4477 10.6797 35C10.6797 35.5523 11.1274 36 11.6797 36H27.6797C28.232 36 28.6797 35.5523 28.6797 35C28.6797 34.4477 28.232 34 27.6797 34Z" fill="#111111"/>
<path d="M48.6484 40.3894C48.4984 40.2994 48.3184 40.2594 48.1484 40.2594C47.9784 40.2594 47.8084 40.2994 47.6484 40.3894L44.1484 42.3894V31.1094H52.1484V42.3894L48.6484 40.3894Z" fill="#2A559A"/>
<path d="M51.1484 32.1094V40.6694L49.1384 39.5194C48.8284 39.3394 48.4884 39.2594 48.1484 39.2594C47.8084 39.2594 47.4684 39.3494 47.1584 39.5194L45.1484 40.6694V32.1094H51.1484ZM53.1484 30.1094H43.1484V44.1094L48.1484 41.2594L53.1484 44.1094V30.1094Z" fill="#111111"/>
<path d="M50.7294 33.0195C50.5194 33.0195 50.1594 32.8895 49.8194 32.7595C49.3194 32.5695 48.7494 32.3495 48.1494 32.3495C47.5494 32.3495 46.9794 32.5695 46.4794 32.7595C46.1394 32.8895 45.7894 33.0195 45.5694 33.0195C45.3294 32.9495 45.0494 32.5195 44.8394 32.1995C44.5594 31.7595 44.2394 31.2695 43.7594 30.9195C43.2794 30.5695 42.7094 30.4195 42.1994 30.2795C41.8394 30.1795 41.3394 30.0495 41.2394 29.8995C41.1394 29.7595 41.1594 29.2295 41.1794 28.8795C41.2094 28.3495 41.2394 27.7595 41.0494 27.1895C40.8694 26.6395 40.4994 26.1895 40.1794 25.7895C39.9294 25.4795 39.6094 25.0895 39.6094 24.8895C39.6094 24.6895 39.9294 24.2995 40.1794 23.9895C40.5094 23.5895 40.8794 23.1395 41.0494 22.5895C41.2294 22.0195 41.1994 21.4195 41.1794 20.8995C41.1594 20.5495 41.1394 20.0195 41.2394 19.8795C41.3494 19.7295 41.8394 19.5995 42.1994 19.4995C42.7094 19.3595 43.2794 19.2095 43.7594 18.8595C44.2294 18.5195 44.5494 18.0195 44.8394 17.5795C45.0494 17.2595 45.3294 16.8295 45.5094 16.7695H45.5294C45.7994 16.7695 46.1494 16.8995 46.4794 17.0295C46.9794 17.2195 47.5394 17.4395 48.1494 17.4395C48.7594 17.4395 49.3194 17.2195 49.8194 17.0295C50.1594 16.8995 50.5094 16.7695 50.7294 16.7695C50.9694 16.8395 51.2594 17.2695 51.4594 17.5895C51.7394 18.0295 52.0594 18.5195 52.5294 18.8695C53.0094 19.2195 53.5894 19.3695 54.0894 19.5095C54.4494 19.6095 54.9494 19.7395 55.0494 19.8895C55.1494 20.0295 55.1294 20.5595 55.1094 20.9095C55.0794 21.4395 55.0494 22.0295 55.2394 22.5995C55.4194 23.1495 55.7894 23.5995 56.1094 23.9995C56.3594 24.3095 56.6794 24.6995 56.6794 24.8995C56.6794 25.0995 56.3594 25.4895 56.1094 25.7995C55.7794 26.1995 55.4094 26.6495 55.2394 27.1995C55.0594 27.7695 55.0894 28.3695 55.1094 28.8895C55.1294 29.2395 55.1494 29.7695 55.0494 29.9095C54.9394 30.0595 54.4494 30.1895 54.0894 30.2895C53.5794 30.4295 53.0094 30.5795 52.5294 30.9295C52.0594 31.2695 51.7394 31.7695 51.4494 32.2095C51.2494 32.5295 50.9694 32.9595 50.7794 33.0195H50.7194H50.7294Z" fill="#1B939F"/>
<path d="M50.4494 17.8498C50.5094 17.9398 50.5694 18.0298 50.6194 18.1098C50.9294 18.5998 51.3194 19.1998 51.9494 19.6498C52.5794 20.1098 53.2794 20.2998 53.8394 20.4498C53.9294 20.4698 54.0394 20.4998 54.1394 20.5298C54.1394 20.6298 54.1394 20.7398 54.1294 20.8298C54.0994 21.4098 54.0594 22.1398 54.3094 22.8798C54.5494 23.6098 54.9994 24.1598 55.3594 24.6098C55.4294 24.6898 55.5094 24.7898 55.5794 24.8798C55.5094 24.9698 55.4294 25.0698 55.3594 25.1498C54.9994 25.5898 54.5494 26.1498 54.3094 26.8798C54.0694 27.6198 54.1094 28.3498 54.1294 28.9298C54.1294 29.0198 54.1294 29.1298 54.1394 29.2298C54.0394 29.2598 53.9294 29.2898 53.8394 29.3098C53.2794 29.4598 52.5794 29.6498 51.9494 30.1098C51.3294 30.5598 50.9394 31.1698 50.6194 31.6498C50.5694 31.7298 50.5094 31.8198 50.4494 31.9098C50.3594 31.8798 50.2594 31.8398 50.1794 31.8098C49.6294 31.5998 48.9394 31.3398 48.1494 31.3398C47.3594 31.3398 46.6694 31.5998 46.1194 31.8098C46.0394 31.8398 45.9394 31.8798 45.8494 31.9098C45.7894 31.8198 45.7294 31.7298 45.6794 31.6498C45.3694 31.1598 44.9794 30.5598 44.3494 30.1098C43.7194 29.6498 43.0194 29.4598 42.4594 29.3098C42.3694 29.2898 42.2594 29.2598 42.1594 29.2298C42.1594 29.1298 42.1594 29.0198 42.1694 28.9298C42.1994 28.3498 42.2394 27.6198 41.9894 26.8798C41.7494 26.1498 41.2994 25.5998 40.9394 25.1498C40.8694 25.0698 40.7894 24.9698 40.7194 24.8798C40.7894 24.7898 40.8694 24.6898 40.9394 24.6098C41.2994 24.1698 41.7494 23.6098 41.9894 22.8798C42.2294 22.1398 42.1894 21.4098 42.1694 20.8298C42.1694 20.7398 42.1694 20.6298 42.1594 20.5298C42.2594 20.4998 42.3694 20.4698 42.4594 20.4498C43.0194 20.2998 43.7194 20.1098 44.3494 19.6498C44.9694 19.1998 45.3594 18.5898 45.6794 18.1098C45.7294 18.0298 45.7894 17.9398 45.8494 17.8498C45.9394 17.8798 46.0394 17.9198 46.1194 17.9498C46.6694 18.1598 47.3594 18.4198 48.1494 18.4198C48.9394 18.4198 49.6294 18.1598 50.1794 17.9498C50.2594 17.9198 50.3594 17.8798 50.4494 17.8498ZM45.5694 15.7598C45.4394 15.7598 45.3194 15.7798 45.1994 15.8198C44.2894 16.1098 43.9294 17.4998 43.1794 18.0498C42.4194 18.6098 40.9894 18.5198 40.4294 19.2898C39.8794 20.0498 40.3894 21.3698 40.0994 22.2798C39.8194 23.1598 38.6094 23.9198 38.6094 24.8998C38.6094 25.8798 39.8194 26.6398 40.0994 27.5198C40.3894 28.4298 39.8794 29.7598 40.4294 30.5098C40.9894 31.2698 42.4094 31.1898 43.1794 31.7498C43.9394 32.2998 44.2994 33.6898 45.1994 33.9798C45.3194 34.0198 45.4394 34.0398 45.5694 34.0398C46.3694 34.0398 47.3094 33.3698 48.1494 33.3698C48.9894 33.3698 49.9194 34.0398 50.7294 34.0398C50.8594 34.0398 50.9794 34.0198 51.0994 33.9798C52.0094 33.6898 52.3694 32.2998 53.1194 31.7498C53.8794 31.1898 55.3094 31.2798 55.8694 30.5098C56.4194 29.7498 55.9094 28.4298 56.1994 27.5198C56.4794 26.6398 57.6894 25.8798 57.6894 24.8998C57.6894 23.9198 56.4794 23.1598 56.1994 22.2798C55.9094 21.3698 56.4194 20.0398 55.8694 19.2898C55.3094 18.5298 53.8894 18.6098 53.1194 18.0498C52.3594 17.4998 51.9994 16.1098 51.0994 15.8198C50.9794 15.7798 50.8594 15.7598 50.7294 15.7598C49.9294 15.7598 48.9894 16.4298 48.1494 16.4298C47.3094 16.4298 46.3794 15.7598 45.5694 15.7598Z" fill="#111111"/>
<path d="M48.1484 28.8906C50.3576 28.8906 52.1484 27.0998 52.1484 24.8906C52.1484 22.6815 50.3576 20.8906 48.1484 20.8906C45.9393 20.8906 44.1484 22.6815 44.1484 24.8906C44.1484 27.0998 45.9393 28.8906 48.1484 28.8906Z" fill="white" stroke="#111111" stroke-width="2" stroke-linecap="round" stroke-linejoin="round"/>
</svg>
