<svg width="49" height="49" viewBox="0 0 49 49" fill="none" xmlns="http://www.w3.org/2000/svg">
<path d="M28.9334 42.26V12.45C28.9334 10.19 28.9334 9.07 28.4434 8.2C28.0134 7.44 27.3134 6.83 26.4634 6.44C25.4934 6 24.2234 6 21.6834 6H13.5234C10.9834 6 9.71344 6 8.74344 6.44C7.89344 6.83 7.19344 7.44 6.76344 8.2C6.27344 9.06 6.27344 10.19 6.27344 12.45V42.26" stroke="white" stroke-width="2" stroke-linecap="round" stroke-linejoin="round"/>
<path d="M15.3281 15.0605H19.8681" stroke="white" stroke-width="2" stroke-linecap="round" stroke-linejoin="round"/>
<path d="M15.3281 21.8594H19.8681" stroke="white" stroke-width="2" stroke-linecap="round" stroke-linejoin="round"/>
<path d="M15.3281 28.6602H19.8681" stroke="white" stroke-width="2" stroke-linecap="round" stroke-linejoin="round"/>
<path d="M28.9297 24.1309H37.0897C38.9897 24.1309 39.9497 24.1309 40.6697 24.5309C41.3097 24.8809 41.8297 25.4309 42.1597 26.1109C42.5297 26.8909 42.5297 27.9009 42.5297 29.9309V42.2609" stroke="white" stroke-width="2" stroke-linecap="round" stroke-linejoin="round"/>
<path d="M44.8 42.2598H4" stroke="white" stroke-width="2" stroke-linecap="round" stroke-linejoin="round"/>
</svg>
