<svg width="68" height="58" viewBox="0 0 68 58" fill="none" xmlns="http://www.w3.org/2000/svg">
<path d="M29.5203 36.0206C32.8403 38.5506 36.1303 41.1206 39.4803 43.6106C41.1703 44.8606 43.5903 44.0106 44.9803 42.5806C46.1903 41.3406 46.6703 39.7106 45.5203 37.7406C45.5203 37.7406 36.3803 29.5806 33.1303 27.0006C30.2303 24.7006 15.3203 27.5106 15.3203 27.5106L16.0303 42.0506C17.2603 41.8406 18.5003 41.6506 19.7403 41.4806C21.2803 41.2706 23.2503 40.6206 24.7403 41.3206C25.3303 41.6006 25.8403 42.0206 26.3403 42.4306C28.2903 44.0406 30.3003 45.5706 32.2303 47.2106C34.0703 48.7706 35.2503 49.5306 37.5903 49.5006C39.4803 49.4806 41.3703 49.4306 43.2603 49.3906C47.7803 49.2906 52.3103 49.1706 56.8303 49.0606C57.9903 49.0306 59.1503 49.0006 60.3103 48.9706C62.6403 48.8506 64.5703 47.1406 64.9303 44.9406C65.3303 42.5406 63.8003 40.1206 61.3403 39.4406C56.3503 39.3306 51.3603 39.2206 46.3803 39.1106" fill="white"/>
<path d="M29.5203 36.0206C32.8403 38.5506 36.1303 41.1206 39.4803 43.6106C41.1703 44.8606 43.5903 44.0106 44.9803 42.5806C46.1903 41.3406 46.6703 39.7106 45.5203 37.7406C45.5203 37.7406 36.3803 29.5806 33.1303 27.0006C30.2303 24.7006 15.3203 27.5106 15.3203 27.5106L16.0303 42.0506C17.2603 41.8406 18.5003 41.6506 19.7403 41.4806C21.2803 41.2706 23.2503 40.6206 24.7403 41.3206C25.3303 41.6006 25.8403 42.0206 26.3403 42.4306C28.2903 44.0406 30.3003 45.5706 32.2303 47.2106C34.0703 48.7706 35.2503 49.5306 37.5903 49.5006C39.4803 49.4806 41.3703 49.4306 43.2603 49.3906C47.7803 49.2906 52.3103 49.1706 56.8303 49.0606C57.9903 49.0306 59.1503 49.0006 60.3103 48.9706C62.6403 48.8506 64.5703 47.1406 64.9303 44.9406C65.3303 42.5406 63.8003 40.1206 61.3403 39.4406C56.3503 39.3306 51.3603 39.2206 46.3803 39.1106" stroke="#111111" stroke-width="2" stroke-linecap="round" stroke-linejoin="round"/>
<path d="M17.19 22.6797H6.24C5.55517 22.6797 5 23.2349 5 23.9197V44.8297C5 45.5145 5.55517 46.0697 6.24 46.0697H17.19C17.8748 46.0697 18.43 45.5145 18.43 44.8297V23.9197C18.43 23.2349 17.8748 22.6797 17.19 22.6797Z" fill="#2A559A"/>
<path d="M17.19 23.6797C17.32 23.6797 17.43 23.7897 17.43 23.9197V44.8297C17.43 44.9597 17.32 45.0697 17.19 45.0697H6.24C6.11 45.0697 6 44.9597 6 44.8297V23.9297C6 23.7997 6.11 23.6897 6.24 23.6897H17.18M17.19 21.6797H6.24C5 21.6797 4 22.6797 4 23.9197V44.8297C4 46.0697 5 47.0697 6.24 47.0697H17.18C18.42 47.0697 19.42 46.0697 19.42 44.8297V23.9297C19.42 22.6897 18.42 21.6897 17.18 21.6897L17.19 21.6797Z" fill="#111111"/>
<path d="M48.8569 30.62C54.8271 30.62 59.6669 25.7802 59.6669 19.81C59.6669 13.8398 54.8271 9 48.8569 9C42.8867 9 38.0469 13.8398 38.0469 19.81C38.0469 25.7802 42.8867 30.62 48.8569 30.62Z" fill="#1B939F" stroke="#111111" stroke-width="2" stroke-linecap="round" stroke-linejoin="round"/>
<path d="M44.2109 17.4902L46.0609 21.8402C46.2309 22.2302 46.8809 22.2402 47.0609 21.8502L48.2909 18.1702C48.4809 17.6002 49.4209 17.6102 49.5909 18.1902L50.6609 21.8502C50.8409 22.2402 51.5009 22.2302 51.6609 21.8402L53.5109 17.4902" stroke="black" stroke-width="2" stroke-linecap="round" stroke-linejoin="round"/>
<path d="M43.6172 19.8105H54.0872" stroke="black" stroke-width="2" stroke-linecap="round" stroke-linejoin="round"/>
</svg>
