<svg width="68" height="58" viewBox="0 0 68 58" fill="none" xmlns="http://www.w3.org/2000/svg">
<path d="M47 4H9C8.44772 4 8 4.44772 8 5V53C8 53.5523 8.44772 54 9 54H47C47.5523 54 48 53.5523 48 53V5C48 4.44772 47.5523 4 47 4Z" fill="white"/>
<path d="M47 5V53H9V5H47ZM47 3H9C7.9 3 7 3.9 7 5V53C7 54.1 7.9 55 9 55H47C48.1 55 49 54.1 49 53V5C49 3.9 48.1 3 47 3Z" fill="#111111"/>
<path d="M47.9069 53.9993C41.0869 53.9993 35.5469 48.4493 35.5469 41.6393C35.5469 34.8293 41.0969 29.2793 47.9069 29.2793C54.7169 29.2793 60.2669 34.8293 60.2669 41.6393C60.2669 48.4493 54.7169 53.9993 47.9069 53.9993Z" fill="#1B939F"/>
<path d="M47.9069 30.2695C54.1769 30.2695 59.2669 35.3695 59.2669 41.6295C59.2669 47.8895 54.1669 52.9895 47.9069 52.9895C41.6469 52.9895 36.5469 47.8895 36.5469 41.6295C36.5469 35.3695 41.6469 30.2695 47.9069 30.2695ZM47.9069 28.2695C40.5269 28.2695 34.5469 34.2495 34.5469 41.6295C34.5469 49.0095 40.5269 54.9895 47.9069 54.9895C55.2869 54.9895 61.2669 49.0095 61.2669 41.6295C61.2669 34.2495 55.2869 28.2695 47.9069 28.2695Z" fill="#111111"/>
<path d="M43.5391 41.6695L47.3691 44.8295L53.4491 38.4395" fill="#1B939F"/>
<path d="M43.5391 41.6695L47.3691 44.8295L53.4491 38.4395" stroke="#111111" stroke-width="2" stroke-linecap="round" stroke-linejoin="round"/>
<path d="M39.2919 18H13.9219C13.3696 18 12.9219 18.4477 12.9219 19C12.9219 19.5523 13.3696 20 13.9219 20H39.2919C39.8442 20 40.2919 19.5523 40.2919 19C40.2919 18.4477 39.8442 18 39.2919 18Z" fill="#111111"/>
<path d="M32.6219 26H13.9219C13.3696 26 12.9219 26.4477 12.9219 27C12.9219 27.5523 13.3696 28 13.9219 28H32.6219C33.1742 28 33.6219 27.5523 33.6219 27C33.6219 26.4477 33.1742 26 32.6219 26Z" fill="#111111"/>
<path d="M26.9919 34H13.9219C13.3696 34 12.9219 34.4477 12.9219 35C12.9219 35.5523 13.3696 36 13.9219 36H26.9919C27.5442 36 27.9919 35.5523 27.9919 35C27.9919 34.4477 27.5442 34 26.9919 34Z" fill="#111111"/>
</svg>
