<svg width="49" height="49" viewBox="0 0 49 49" fill="none" xmlns="http://www.w3.org/2000/svg">
<path d="M24 5.69922L8.46002 12.5692C7.97002 14.9592 7.49002 18.9492 8.46002 23.7092C8.81002 25.4492 9.54002 28.2092 11.09 31.0992C14.88 38.1692 21.15 41.6592 24 42.9992C26.85 41.6392 33.12 38.1692 36.91 31.0992C38.46 28.1892 39.21 25.4292 39.54 23.7092C40.51 18.9492 40.03 14.9592 39.54 12.5692L24 5.69922Z" stroke="white" stroke-width="2" stroke-linecap="round" stroke-linejoin="round"/>
<path d="M28.5322 22.0898V20.0198C28.5322 17.1598 26.5022 14.8398 24.0022 14.8398C21.5022 14.8398 19.4722 17.1598 19.4722 20.0198V22.0898M24.0022 25.7198V27.5298M21.1022 31.1598H26.9022C28.4222 31.1598 29.1822 31.1598 29.7722 30.8898C30.2822 30.6498 30.7022 30.2698 30.9622 29.8098C31.2622 29.2798 31.2622 28.5898 31.2622 27.1998V26.0498C31.2622 24.6698 31.2622 23.9698 30.9622 23.4398C30.7022 22.9698 30.2822 22.5998 29.7722 22.3598C29.1922 22.0898 28.4322 22.0898 26.9022 22.0898H21.1022C19.5822 22.0898 18.8222 22.0898 18.2322 22.3598C17.7222 22.5998 17.3022 22.9798 17.0422 23.4398C16.7422 23.9698 16.7422 24.6598 16.7422 26.0498V27.1998C16.7422 28.5798 16.7422 29.2798 17.0422 29.8098C17.3022 30.2798 17.7222 30.6498 18.2322 30.8898C18.8122 31.1598 19.5722 31.1598 21.1022 31.1598Z" stroke="white" stroke-width="2" stroke-linecap="round" stroke-linejoin="round"/>
</svg>
