<svg width="68" height="59" viewBox="0 0 68 59" fill="none" xmlns="http://www.w3.org/2000/svg">
<path d="M63.7481 17.5391V42.3191C63.7481 43.4191 62.8481 44.3191 61.7481 44.3191C60.9881 44.3191 60.3781 44.9591 60.4281 45.7191L60.7281 50.8591C60.7781 51.7291 59.7681 52.2491 59.0981 51.6891L51.3081 45.2691C50.5581 44.6491 49.6181 44.3191 48.6481 44.3191H26.3281C25.2281 44.3191 24.3281 43.4191 24.3281 42.3191V17.5391C24.3281 16.4391 25.2281 15.5391 26.3281 15.5391H61.7581C62.8581 15.5391 63.7581 16.4391 63.7581 17.5391H63.7481Z" fill="#2A559A" stroke="#111111" stroke-width="2" stroke-linecap="round" stroke-linejoin="round"/>
<path d="M52.0391 31.2793C53.1436 31.2793 54.0391 30.3839 54.0391 29.2793C54.0391 28.1747 53.1436 27.2793 52.0391 27.2793C50.9345 27.2793 50.0391 28.1747 50.0391 29.2793C50.0391 30.3839 50.9345 31.2793 52.0391 31.2793Z" fill="white"/>
<path d="M44.0391 31.2793C45.1436 31.2793 46.0391 30.3839 46.0391 29.2793C46.0391 28.1747 45.1436 27.2793 44.0391 27.2793C42.9345 27.2793 42.0391 28.1747 42.0391 29.2793C42.0391 30.3839 42.9345 31.2793 44.0391 31.2793Z" fill="white"/>
<path d="M36.0391 31.2793C37.1436 31.2793 38.0391 30.3839 38.0391 29.2793C38.0391 28.1747 37.1436 27.2793 36.0391 27.2793C34.9345 27.2793 34.0391 28.1747 34.0391 29.2793C34.0391 30.3839 34.9345 31.2793 36.0391 31.2793Z" fill="white"/>
<path d="M4 9.53906V34.3191C4 35.4191 4.9 36.3191 6 36.3191C6.76 36.3191 7.37 36.9591 7.32 37.7191L7.02 42.8591C6.97 43.7291 7.98 44.2491 8.65 43.6891L16.44 37.2691C17.19 36.6491 18.13 36.3191 19.1 36.3191H41.42C42.52 36.3191 43.42 35.4191 43.42 34.3191V9.53906C43.42 8.43906 42.52 7.53906 41.42 7.53906H6C4.9 7.53906 4 8.43906 4 9.53906Z" fill="#1B939F" stroke="#111111" stroke-width="2" stroke-linecap="round" stroke-linejoin="round"/>
<path d="M15.7109 23.2793C16.8155 23.2793 17.7109 22.3839 17.7109 21.2793C17.7109 20.1747 16.8155 19.2793 15.7109 19.2793C14.6064 19.2793 13.7109 20.1747 13.7109 21.2793C13.7109 22.3839 14.6064 23.2793 15.7109 23.2793Z" fill="white"/>
<path d="M23.7109 23.2793C24.8155 23.2793 25.7109 22.3839 25.7109 21.2793C25.7109 20.1747 24.8155 19.2793 23.7109 19.2793C22.6064 19.2793 21.7109 20.1747 21.7109 21.2793C21.7109 22.3839 22.6064 23.2793 23.7109 23.2793Z" fill="white"/>
<path d="M31.7109 23.2793C32.8155 23.2793 33.7109 22.3839 33.7109 21.2793C33.7109 20.1747 32.8155 19.2793 31.7109 19.2793C30.6064 19.2793 29.7109 20.1747 29.7109 21.2793C29.7109 22.3839 30.6064 23.2793 31.7109 23.2793Z" fill="white"/>
</svg>
