<svg width="68" height="58" viewBox="0 0 68 58" fill="none" xmlns="http://www.w3.org/2000/svg">
<path d="M33.3306 18.3134C33.3306 18.3134 38.2506 11.8434 36.0806 7.56343C35.2706 5.97343 34.0006 5.07343 32.3706 5.34343C30.7706 5.60343 29.0906 5.95343 27.4306 5.71343C25.7706 5.47343 24.5206 5.29343 23.0206 4.55343C21.5106 3.81343 19.9506 3.61343 18.8906 5.24343C18.1006 6.45343 18.1206 8.04343 18.4106 9.45343C18.8106 11.3634 19.5306 13.1534 20.2506 14.9234C20.4806 15.4934 21.5706 19.2734 22.1706 19.3034L32.4506 19.7734C32.7406 19.2534 33.0506 18.8234 33.3306 18.3134Z" fill="white" stroke="#111111" stroke-width="2" stroke-linecap="round" stroke-linejoin="round"/>
<path d="M20.9528 53.873C16.6828 53.873 12.8328 51.923 10.3728 48.513C8.00278 45.233 7.37277 41.153 8.64277 37.333L12.1428 26.783C13.8828 21.553 18.8228 18.043 24.4528 18.043H30.7528C36.2228 18.043 41.1228 21.423 42.9528 26.463L46.7728 37.013C48.1728 40.863 47.6128 45.003 45.2528 48.363C42.8028 51.853 38.9128 53.863 34.5728 53.863H20.9528V53.873Z" fill="white"/>
<path d="M30.7536 19.0527C35.8036 19.0527 40.3336 22.1727 42.0136 26.8127L45.8336 37.3627C47.1136 40.9027 46.6036 44.7027 44.4336 47.8027C42.1736 51.0227 38.5836 52.8727 34.5736 52.8727H20.9536C17.0136 52.8727 13.4536 51.0727 11.1836 47.9227C9.00357 44.9027 8.42357 41.1627 9.59357 37.6427L13.0936 27.0927C14.6936 22.2727 19.2536 19.0427 24.4536 19.0427H30.7536M30.7536 17.0527H24.4536C18.4136 17.0527 13.0636 20.8527 11.1936 26.4727L7.69357 37.0227C4.76357 45.8327 11.4836 54.8727 20.9536 54.8727H34.5736C44.2036 54.8727 50.9236 45.5527 47.7136 36.6827L43.8936 26.1327C41.9236 20.6927 36.6536 17.0527 30.7536 17.0527Z" fill="#111111"/>
<path d="M34.9859 15.4336H19.8759C19.4396 15.4336 19.0859 15.7873 19.0859 16.2236V19.0836C19.0859 19.5199 19.4396 19.8736 19.8759 19.8736H34.9859C35.4222 19.8736 35.7759 19.5199 35.7759 19.0836V16.2236C35.7759 15.7873 35.4222 15.4336 34.9859 15.4336Z" fill="#2A559A" stroke="#111111" stroke-width="2" stroke-linecap="round" stroke-linejoin="round"/>
<path d="M20.0547 33.7129L23.1147 40.9229C23.3947 41.5729 24.4747 41.5929 24.7847 40.9429L26.8247 34.8429C27.1447 33.8929 28.6947 33.9129 28.9747 34.8729L30.7547 40.9429C31.0547 41.5929 32.1447 41.5729 32.4247 40.9229L35.4847 33.7129" stroke="black" stroke-width="2" stroke-linecap="round" stroke-linejoin="round"/>
<path d="M19.0859 37.5723H36.4459" stroke="black" stroke-width="2" stroke-linecap="round" stroke-linejoin="round"/>
<path d="M44.9766 44.1934V50.1934C44.9766 51.8534 48.5566 53.1934 52.9766 53.1934C57.3966 53.1934 60.9766 51.8534 60.9766 50.1934V44.1934" fill="#1B939F"/>
<path d="M44.9766 44.1934V50.1934C44.9766 51.8534 48.5566 53.1934 52.9766 53.1934C57.3966 53.1934 60.9766 51.8534 60.9766 50.1934V44.1934" stroke="#111111" stroke-width="2" stroke-linecap="round" stroke-linejoin="round"/>
<path d="M44.9766 38.4727V44.4727C44.9766 46.1327 48.5566 47.4727 52.9766 47.4727C57.3966 47.4727 60.9766 46.1327 60.9766 44.4727V38.4727" fill="#1B939F"/>
<path d="M44.9766 38.4727V44.4727C44.9766 46.1327 48.5566 47.4727 52.9766 47.4727C57.3966 47.4727 60.9766 46.1327 60.9766 44.4727V38.4727" stroke="#111111" stroke-width="2" stroke-linecap="round" stroke-linejoin="round"/>
<path d="M44.9766 32.4727V38.4727C44.9766 40.1327 48.5566 41.4727 52.9766 41.4727C57.3966 41.4727 60.9766 40.1327 60.9766 38.4727V32.4727" fill="#1B939F"/>
<path d="M44.9766 32.4727V38.4727C44.9766 40.1327 48.5566 41.4727 52.9766 41.4727C57.3966 41.4727 60.9766 40.1327 60.9766 38.4727V32.4727" stroke="#111111" stroke-width="2" stroke-linecap="round" stroke-linejoin="round"/>
<path d="M44.9766 32.4727C44.9766 34.1327 48.5566 35.4727 52.9766 35.4727C57.3966 35.4727 60.9766 34.1327 60.9766 32.4727C60.9766 30.8127 57.3966 29.4727 52.9766 29.4727C48.5566 29.4727 44.9766 30.8127 44.9766 32.4727Z" fill="#1B939F" stroke="#111111" stroke-width="2" stroke-linecap="round" stroke-linejoin="round"/>
</svg>
