<svg width="41" height="41" viewBox="0 0 41 41" fill="none" xmlns="http://www.w3.org/2000/svg">
<path d="M35.8944 11.1504L38.7844 26.7704C38.7844 26.7704 38.9944 28.6104 37.3444 28.8004H33.2344" stroke="#505050" stroke-miterlimit="10"/>
<path d="M3.48788 31.1H31.8779C32.6279 31.1 33.2579 30.54 33.3479 29.8L35.8979 11.15C35.8979 10.53 35.3979 10.03 34.7779 10.03L6.22788 10C5.60788 10 5.10788 10.5 5.10788 11.12L2.01788 29.4C1.87788 30.3 2.57788 31.11 3.48788 31.11V31.1Z" stroke="#505050" stroke-miterlimit="10"/>
<path d="M8.61719 15.0996L10.1272 18.7596C10.2672 19.0896 10.8072 19.1096 10.9672 18.7796L12.0272 15.7096C12.1972 15.2296 12.9772 15.2496 13.1072 15.7396L13.9772 18.8096C14.1272 19.1396 14.6772 19.1396 14.8172 18.8096L16.3972 15.1896" stroke="#505050" stroke-linecap="round" stroke-linejoin="round"/>
<path d="M8.10938 17.0391L16.8694 17.1291" stroke="#505050" stroke-linecap="round" stroke-linejoin="round"/>
<path d="M7.25 23.6191H28.69" stroke="#505050" stroke-miterlimit="10" stroke-linecap="round"/>
<path d="M7.25 26.6895H19.9" stroke="#505050" stroke-miterlimit="10" stroke-linecap="round"/>
</svg>
