<svg width="68" height="59" viewBox="0 0 68 59" fill="none" xmlns="http://www.w3.org/2000/svg">
<path d="M9.92 54.5388C9.86 54.5388 9.79 54.5088 9.75 54.4588C9.71 54.4188 9.69 54.3688 9.7 54.2988L10.07 48.0088C10.11 47.2888 9.85 46.5788 9.36 46.0588C8.87 45.5388 8.17 45.2388 7.45 45.2388C6.65 45.2388 6 44.5888 6 43.7888V13.4988C6 12.6988 6.65 12.0488 7.45 12.0488H50.76C51.56 12.0488 52.21 12.6988 52.21 13.4988V43.7888C52.21 44.5888 51.56 45.2388 50.76 45.2388H23.47C22.06 45.2388 20.68 45.7388 19.59 46.6288L10.06 54.4788C10.06 54.4788 9.97 54.5288 9.92 54.5288V54.5388Z" fill="white"/>
<path d="M50.76 13.0586C51.01 13.0586 51.21 13.2586 51.21 13.5086V43.7986C51.21 44.0486 51.01 44.2486 50.76 44.2486H23.47C21.83 44.2486 20.22 44.8286 18.95 45.8686L10.8 52.5886L11.06 48.0786C11.12 47.0886 10.76 46.1086 10.08 45.3786C9.39999 44.6586 8.43999 44.2386 7.43999 44.2386C7.18999 44.2386 6.98999 44.0386 6.98999 43.7886V13.4986C6.98999 13.2486 7.18999 13.0486 7.43999 13.0486H50.75M50.76 11.0586H7.45C6.1 11.0586 5 12.1486 5 13.5086V43.7986C5 45.1486 6.09 46.2486 7.45 46.2486C8.38 46.2486 9.11999 47.0386 9.06999 47.9686L8.7 54.2486C8.66 55.0086 9.26999 55.5486 9.92999 55.5486C10.19 55.5486 10.46 55.4586 10.7 55.2686L20.23 47.4186C21.14 46.6686 22.29 46.2486 23.48 46.2486H50.77C52.12 46.2486 53.22 45.1586 53.22 43.7986V13.5086C53.22 12.1586 52.13 11.0586 50.77 11.0586H50.76Z" fill="#111111"/>
<path d="M15.9006 23.459H23.2806V25.709H18.6706V27.629H22.8106V29.879H18.6706V34.049H15.8906V23.459H15.9006Z" fill="#2A559A"/>
<path d="M22.6819 34.0392L26.2019 23.4492H29.9919L33.5019 34.0392H30.5019L29.8619 31.9592H26.3119L25.6819 34.0392H22.6719H22.6819ZM29.2219 29.8592L28.1319 26.3092H28.0419L26.9619 29.8592H29.2219Z" fill="#2A559A"/>
<path d="M43.8144 31.1386C43.5344 31.8386 43.1444 32.4286 42.6344 32.8986L44.2344 34.8386H41.7444L40.9444 33.8986C40.3744 34.0886 39.7644 34.1886 39.1144 34.1886C38.1444 34.1886 37.2644 33.9786 36.4844 33.5486C35.7044 33.1186 35.0944 32.4986 34.6544 31.6886C34.2144 30.8786 33.9844 29.8886 33.9844 28.7486C33.9844 27.6086 34.2044 26.6286 34.6544 25.8086C35.1044 24.9886 35.7144 24.3686 36.4844 23.9486C37.2544 23.5286 38.1344 23.3086 39.1144 23.3086C40.0944 23.3086 40.9544 23.5186 41.7344 23.9486C42.5144 24.3786 43.1244 24.9986 43.5644 25.8086C44.0044 26.6186 44.2344 27.6086 44.2344 28.7486C44.2344 29.6386 44.0944 30.4386 43.8144 31.1386ZM40.3144 30.1586L40.8744 30.8586C41.2044 30.3486 41.3644 29.6486 41.3644 28.7486C41.3644 27.7786 41.1744 27.0386 40.7844 26.5186C40.3944 25.9986 39.8444 25.7386 39.1144 25.7386C38.3844 25.7386 37.8244 25.9986 37.4344 26.5186C37.0444 27.0386 36.8544 27.7786 36.8544 28.7486C36.8544 29.7186 37.0444 30.4586 37.4344 30.9786C37.8244 31.4986 38.3844 31.7586 39.1144 31.7586H39.3444L38.1344 30.1486H40.3144V30.1586Z" fill="#2A559A"/>
<path d="M52.1819 24.0591C46.8019 24.0591 42.4219 19.6791 42.4219 14.2991C42.4219 8.91906 46.8019 4.53906 52.1819 4.53906C57.5619 4.53906 61.9419 8.91906 61.9419 14.2991C61.9419 19.6791 57.5619 24.0591 52.1819 24.0591Z" fill="#1B939F"/>
<path d="M52.1819 5.53906C57.0119 5.53906 60.9419 9.46906 60.9419 14.2991C60.9419 19.1291 57.0119 23.0591 52.1819 23.0591C47.3519 23.0591 43.4219 19.1291 43.4219 14.2991C43.4219 9.46906 47.3519 5.53906 52.1819 5.53906ZM52.1819 3.53906C46.2419 3.53906 41.4219 8.35906 41.4219 14.2991C41.4219 20.2391 46.2419 25.0591 52.1819 25.0591C58.1219 25.0591 62.9419 20.2391 62.9419 14.2991C62.9419 8.35906 58.1219 3.53906 52.1819 3.53906Z" fill="#111111"/>
<path d="M49.7188 10.8191C50.0687 8.77906 52.5987 7.87906 54.1587 9.24906C54.8787 9.88906 55.0787 10.9491 54.8687 11.8291C54.5987 12.9491 53.5287 13.4691 52.4887 13.8391L52.4387 16.5891" stroke="black" stroke-width="2" stroke-linecap="round" stroke-linejoin="round"/>
<path d="M52.3281 20.4785C52.8804 20.4785 53.3281 20.0308 53.3281 19.4785C53.3281 18.9262 52.8804 18.4785 52.3281 18.4785C51.7758 18.4785 51.3281 18.9262 51.3281 19.4785C51.3281 20.0308 51.7758 20.4785 52.3281 20.4785Z" fill="black"/>
</svg>
