<svg width="68" height="58" viewBox="0 0 68 58" fill="none" xmlns="http://www.w3.org/2000/svg">
<path d="M46 4H10C9.44772 4 9 4.44772 9 5V53C9 53.5523 9.44772 54 10 54H46C46.5523 54 47 53.5523 47 53V5C47 4.44772 46.5523 4 46 4Z" fill="white"/>
<path d="M46 5V53H10V5H46ZM46 3H10C8.9 3 8 3.9 8 5V53C8 54.1 8.9 55 10 55H46C47.1 55 48 54.1 48 53V5C48 3.9 47.1 3 46 3Z" fill="#111111"/>
<path d="M30.1875 45.0293H14.1875C13.6352 45.0293 13.1875 45.477 13.1875 46.0293C13.1875 46.5816 13.6352 47.0293 14.1875 47.0293H30.1875C30.7398 47.0293 31.1875 46.5816 31.1875 46.0293C31.1875 45.477 30.7398 45.0293 30.1875 45.0293Z" fill="#111111"/>
<path d="M36.1875 36.8711H14.1875C13.6352 36.8711 13.1875 37.3188 13.1875 37.8711C13.1875 38.4234 13.6352 38.8711 14.1875 38.8711H36.1875C36.7398 38.8711 37.1875 38.4234 37.1875 37.8711C37.1875 37.3188 36.7398 36.8711 36.1875 36.8711Z" fill="#111111"/>
<path d="M40.1875 28.8711H14.1875C13.6352 28.8711 13.1875 29.3188 13.1875 29.8711C13.1875 30.4234 13.6352 30.8711 14.1875 30.8711H40.1875C40.7398 30.8711 41.1875 30.4234 41.1875 29.8711C41.1875 29.3188 40.7398 28.8711 40.1875 28.8711Z" fill="#111111"/>
<path d="M46.5319 33.2903C39.7119 33.2903 34.1719 27.7403 34.1719 20.9303C34.1719 14.1203 39.7219 8.57031 46.5319 8.57031C53.3419 8.57031 58.8919 14.1203 58.8919 20.9303C58.8919 27.7403 53.3419 33.2903 46.5319 33.2903Z" fill="#1B939F"/>
<path d="M46.5319 9.56055C52.8019 9.56055 57.8919 14.6605 57.8919 20.9205C57.8919 27.1805 52.7919 32.2805 46.5319 32.2805C40.2719 32.2805 35.1719 27.1805 35.1719 20.9205C35.1719 14.6605 40.2719 9.56055 46.5319 9.56055ZM46.5319 7.56055C39.1519 7.56055 33.1719 13.5405 33.1719 20.9205C33.1719 28.3005 39.1519 34.2805 46.5319 34.2805C53.9119 34.2805 59.8919 28.3005 59.8919 20.9205C59.8919 13.5405 53.9119 7.56055 46.5319 7.56055Z" fill="#111111"/>
<path d="M45.5312 15.5293V22.3093H51.8913" fill="#1B939F"/>
<path d="M45.5312 15.5293V22.3093H51.8913" stroke="#111111" stroke-width="2" stroke-linecap="round" stroke-linejoin="round"/>
</svg>
